HIERARCHY
ROOT Hips
{
	OFFSET -109.992104 92.699142 431.869385
	CHANNELS 6 Xposition Yposition Zposition Zrotation Yrotation Xrotation 
	JOINT LeftUpLeg
	{
		OFFSET 0.103458 1.857831 10.548500
		CHANNELS 3 Zrotation Yrotation Xrotation
		JOINT LeftLeg
		{
			OFFSET 43.500000 -0.000027 -0.000013
			CHANNELS 3 Zrotation Yrotation Xrotation
			JOINT LeftFoot
			{
				OFFSET 42.372196 0.000031 0.000011
				CHANNELS 3 Zrotation Yrotation Xrotation
				JOINT LeftToe
				{
					OFFSET 17.299994 -0.000003 -0.000004
					CHANNELS 3 Zrotation Yrotation Xrotation
					End Site
					{
						OFFSET 0.000000 0.000000 0.000000
					}
				}
			}
		}
	}
	JOINT RightUpLeg
	{
		OFFSET 0.103455 1.857826 -10.548502
		CHANNELS 3 Zrotation Yrotation Xrotation
		JOINT RightLeg
		{
			OFFSET 43.500038 -0.000023 0.000010
			CHANNELS 3 Zrotation Yrotation Xrotation
			JOINT RightFoot
			{
				OFFSET 42.372261 0.000004 0.000006
				CHANNELS 3 Zrotation Yrotation Xrotation
				JOINT RightToe
				{
					OFFSET 17.299988 -0.000008 0.000010
					CHANNELS 3 Zrotation Yrotation Xrotation
					End Site
					{
						OFFSET 0.000000 0.000000 0.000000
					}
				}
			}
		}
	}
	JOINT Spine
	{
		OFFSET 6.901968 -2.603722 -0.000004
		CHANNELS 3 Zrotation Yrotation Xrotation
		JOINT Spine1
		{
			OFFSET 12.588099 -0.000002 0.000005
			CHANNELS 3 Zrotation Yrotation Xrotation
			JOINT Spine2
			{
				OFFSET 12.343202 -0.000017 -0.000005
				CHANNELS 3 Zrotation Yrotation Xrotation
				JOINT Neck
				{
					OFFSET 25.832903 0.000008 0.000008
					CHANNELS 3 Zrotation Yrotation Xrotation
					JOINT Head
					{
						OFFSET 11.766607 0.000004 -0.000001
						CHANNELS 3 Zrotation Yrotation Xrotation
						End Site
						{
							OFFSET 0.000000 0.000000 0.000000
						}
					}
				}
				JOINT LeftShoulder
				{
					OFFSET 19.745907 -1.480366 6.000107
					CHANNELS 3 Zrotation Yrotation Xrotation
					JOINT LeftArm
					{
						OFFSET 11.284126 -0.000031 -0.000025
						CHANNELS 3 Zrotation Yrotation Xrotation
						JOINT LeftForeArm
						{
							OFFSET 33.000050 0.000011 0.000029
							CHANNELS 3 Zrotation Yrotation Xrotation
							JOINT LeftHand
							{
								OFFSET 25.200008 0.000009 0.000011
								CHANNELS 3 Zrotation Yrotation Xrotation
								End Site
								{
									OFFSET 0.000000 0.000000 0.000000
								}
							}
						}
					}
				}
				JOINT RightShoulder
				{
					OFFSET 19.746094 -1.480364 -6.000070
					CHANNELS 3 Zrotation Yrotation Xrotation
					JOINT RightArm
					{
						OFFSET 11.284145 -0.000017 -0.000020
						CHANNELS 3 Zrotation Yrotation Xrotation
						JOINT RightForeArm
						{
							OFFSET 33.000088 0.000019 0.000022
							CHANNELS 3 Zrotation Yrotation Xrotation
							JOINT RightHand
							{
								OFFSET 25.199780 0.000137 0.000414
								CHANNELS 3 Zrotation Yrotation Xrotation
								End Site
								{
									OFFSET 0.000000 0.000000 0.000000
								}
							}
						}
					}
				}
			}
		}
	}
}
MOTION
Frames: 15
Frame Time: 0.033333
10.153000 89.621094 628.284180 91.264510 0.000695 -125.034727 151.008406 -7.938503 172.387240 -45.974403 0.347204 -10.175326 83.554462 5.984845 -5.439757 21.454550 0.003086 0.000001 -177.411951 -1.071108 -172.096807 -26.519803 3.805520 17.243123 93.480640 -10.637615 10.638549 21.454558 -0.003104 -0.000017 9.655074 0.687306 0.762995 9.306969 1.310975 1.578838 8.988907 1.320616 1.570903 -2.038199 -4.346625 6.089033 -6.016289 -7.026985 6.587785 178.609310 -74.315996 0.059370 -0.197693 51.570141 49.008130 -18.001382 -13.518170 0.957168 16.609804 -4.616860 1.713024 134.623302 73.278197 -45.069447 -18.236600 -36.968334 3.951317 -65.295912 19.907642 -2.676939 8.555903 14.895294 -23.951465 
10.267160 89.743736 628.060181 91.021983 -0.129746 -123.946459 152.513097 -7.733503 169.308819 -45.985693 1.229854 -10.228589 84.549498 6.541105 -2.749988 21.454555 0.003097 -0.000000 -177.240499 -0.969694 -172.113486 -26.512738 3.826094 17.708628 93.019253 -10.897365 10.999991 21.454557 -0.003111 -0.000017 9.589792 0.614115 0.811253 9.175683 1.161920 1.668686 8.857665 1.172124 1.661647 -2.417803 -4.819758 5.980258 -6.016186 -6.531764 6.191125 -177.855203 -74.423121 -3.568952 5.358963 51.640690 51.504650 -18.982774 -13.584271 0.971791 17.936734 -6.018542 -1.242316 134.737134 73.467195 -44.938164 -18.239199 -37.356398 4.199782 -65.254992 19.728103 -2.662650 9.183428 14.492367 -23.254789 
10.390850 89.857132 627.610107 90.801013 0.058914 -122.967584 154.719166 -7.843200 166.021654 -43.755466 1.220549 -9.432858 83.833899 6.015033 -2.612868 21.454553 0.003095 0.000001 -177.064608 -0.985193 -172.301781 -26.218928 3.905413 18.207128 92.461446 -11.165875 11.439951 21.454557 -0.003107 -0.000018 9.459097 0.566023 0.896742 8.914235 1.061251 1.834457 8.596257 1.072453 1.828019 -2.636284 -5.168873 5.770139 -6.413656 -6.210721 5.809067 -175.878601 -74.608014 -5.599212 10.555703 51.889780 54.004475 -19.783880 -13.847082 0.997556 17.708913 -6.054142 -6.650994 135.434892 73.291495 -44.244603 -17.607174 -37.877384 3.525569 -64.985678 19.509102 -2.636348 9.832039 15.046435 -23.164933 
10.558100 89.835487 626.885681 90.864616 0.484416 -121.966005 157.898674 -8.190899 161.930193 -39.150036 0.850340 -8.070990 84.761275 4.927646 -3.483698 21.454550 0.003094 0.000001 -176.689617 -1.270005 -172.290128 -25.830053 3.943591 18.568424 91.979849 -11.317334 12.082581 21.454553 -0.003105 -0.000017 9.299677 0.582024 0.966162 8.596319 1.090681 1.972904 8.278369 1.102703 1.966299 -2.970461 -5.520762 5.665802 -6.562418 -5.698728 5.453928 -174.003195 -74.788529 -7.524681 14.541256 52.319935 55.522656 -20.257417 -14.142533 1.021923 16.145326 -4.067334 -9.645950 136.119195 72.985284 -43.575149 -16.934665 -38.718932 1.633722 -63.939969 19.693834 -2.607138 9.924111 14.977671 -22.846079 
10.618360 90.276413 626.017883 90.043005 0.450971 -121.163813 161.000236 -7.062699 157.183321 -34.031595 1.083556 -6.196482 86.121807 3.835250 -2.478557 21.454555 0.003096 -0.000000 -175.656537 -0.634004 -172.066371 -23.876857 3.669044 18.819652 90.765516 -11.347025 12.693932 21.454560 -0.003109 -0.000018 9.121416 0.396627 0.985944 8.236440 0.722086 1.997607 7.918535 0.734271 1.993220 -3.272561 -5.846927 5.623213 -6.247446 -5.178736 5.138662 -172.793404 -74.898222 -8.766165 16.628941 53.163020 56.909225 -20.419441 -13.975977 1.013301 15.998289 -2.452764 -10.330730 136.043489 72.965374 -43.653604 -16.368352 -40.372398 -0.742263 -62.741401 19.848902 -2.570170 10.069377 14.708179 -21.595045 
10.545920 90.729187 625.022400 89.433855 0.306320 -119.838196 162.128009 -5.493388 161.170253 -31.975595 -0.876253 -7.665556 85.237838 4.908717 -2.337533 21.454555 0.003091 -0.000001 -174.943315 0.099905 -171.933306 -23.088608 3.616686 19.304087 88.849587 -11.377905 13.879236 21.454557 -0.003107 -0.000017 9.046328 0.239661 0.962856 8.083366 0.411542 1.940050 7.765442 0.423373 1.937543 -3.428146 -5.988816 5.452149 -6.165363 -5.062515 4.881114 -173.645279 -74.443407 -7.888219 16.052667 53.456404 57.768845 -20.027086 -13.711490 0.991789 15.562062 0.042446 -9.321520 137.399200 72.629718 -42.303617 -15.736121 -41.820439 -3.564383 -61.273142 20.072580 -2.527979 10.256434 14.271691 -21.597282 
10.448120 90.898804 623.914978 89.395285 0.204703 -118.418705 162.322191 -4.279496 163.483255 -32.113135 -0.856374 -8.383618 85.056325 5.375620 -2.502850 21.454553 0.003088 0.000000 -174.709955 0.650700 -171.773425 -24.048135 3.872771 19.665540 87.149847 -11.245394 15.387472 21.454551 -0.003103 -0.000017 9.069579 0.187177 1.044170 8.129101 0.300586 2.098863 7.811237 0.313395 2.097015 -3.450556 -6.364185 5.197971 -6.332936 -4.620690 4.406088 -175.164204 -73.685652 -6.320186 12.995401 53.734123 56.403880 -19.573883 -13.343332 0.963099 14.967468 1.878685 -4.968032 138.181489 72.536964 -41.515679 -14.971339 -43.855425 -6.632774 -59.279253 20.433954 -2.476016 10.200059 13.604596 -22.133208 
10.440100 91.094116 622.731812 89.705785 0.105098 -117.671879 163.145789 -3.897405 162.792914 -32.041596 -0.174391 -7.704111 85.336117 4.924549 -2.351600 21.454553 0.003097 -0.000001 -174.360796 1.192298 -170.957654 -25.167900 4.098425 19.181043 85.241669 -10.532841 16.481072 21.454558 -0.003107 -0.000017 9.093825 0.182459 1.250291 8.177839 0.276149 2.510307 7.860074 0.291429 2.508604 -3.425950 -6.366572 4.870247 -6.106325 -4.261470 3.978064 -174.814198 -73.504727 -6.677559 8.778985 55.101462 53.691243 -19.691210 -13.375098 0.966472 15.122710 2.901312 -1.895292 135.136099 72.313105 -44.629467 -13.275919 -46.759041 -10.271521 -56.722518 20.632195 -2.393516 10.621078 12.677669 -21.475279 
10.431800 91.331879 621.382080 90.050402 -0.184656 -117.700320 164.874934 -3.517299 161.235372 -31.041926 0.525623 -6.948287 85.826033 4.403300 -2.302125 21.454550 0.003090 -0.000001 -173.997034 2.025894 -170.300768 -26.541780 4.252642 18.409035 83.115882 -9.607358 17.286912 21.454557 -0.003106 -0.000018 9.078755 0.138415 1.464367 8.146916 0.173482 2.934800 7.829270 0.191333 2.933708 -3.003156 -5.957329 4.709329 -5.711855 -4.060950 3.901525 -174.854018 -73.411146 -6.635474 5.185748 56.390223 51.133822 -21.078230 -13.826670 1.011959 15.841591 3.337057 -0.738530 133.462415 72.269549 -46.332667 -12.964599 -49.406457 -14.438965 -53.006550 20.751800 -2.267678 11.612735 10.248290 -19.793497 
10.456910 91.529167 619.911926 90.312053 -0.462803 -117.258297 166.651958 -2.809912 161.377535 -29.802257 0.721089 -6.873227 86.403211 4.345864 -2.346746 21.454551 0.003100 0.000000 -173.666289 2.986204 -168.862220 -28.148082 4.285579 17.416368 80.858955 -8.519239 17.814725 21.454555 -0.003103 -0.000018 9.008436 0.116284 1.474379 8.005729 0.130378 2.953231 7.688097 0.148341 2.952394 -2.654351 -5.326028 4.624682 -5.320824 -4.093783 4.019815 -175.458394 -72.977921 -6.008669 1.734302 56.953778 48.854530 -23.732086 -14.195760 1.071663 15.441511 1.402325 -2.409354 134.022081 72.424608 -45.751394 -13.796848 -51.819549 -17.689635 -49.133608 20.642860 -2.128614 12.151393 5.796571 -19.036343 
10.490520 91.672653 618.428772 90.406310 -0.768230 -116.755609 168.461206 -1.740492 163.304140 -28.323321 0.430423 -7.755512 86.951955 4.941090 -2.488245 21.454555 0.003092 0.000002 -173.790598 4.095000 -168.064823 -30.473090 4.459008 16.759621 78.700424 -7.775025 17.814860 21.454567 -0.003110 -0.000016 8.922795 0.085229 1.374435 7.833687 0.077318 2.751459 7.516001 0.094072 2.750951 -2.163927 -5.485613 4.772793 -5.558459 -3.525782 4.013063 -175.649407 -72.288168 -5.802888 -2.604351 57.127801 47.133213 -25.823620 -14.609710 1.130387 15.407992 -2.152113 -5.171344 134.977898 72.010684 -44.815450 -13.939994 -53.884944 -19.725004 -46.078375 20.345032 -2.011074 12.843281 0.611085 -20.155190 
10.502370 91.753593 617.002075 90.203713 -1.107014 -116.277222 170.319564 -0.478395 166.231751 -26.546362 -0.426630 -9.159252 87.437766 5.945710 -2.377954 21.454551 0.003093 0.000001 -174.752658 5.292895 -167.800468 -33.827793 4.197004 16.521512 76.106715 -7.237370 17.835892 21.454555 -0.003110 -0.000017 8.852245 0.003687 1.243565 7.690834 -0.075186 2.484600 7.373067 -0.060046 2.485009 -2.089781 -5.803253 4.903398 -5.652728 -2.735492 3.854716 -175.969907 -71.827820 -5.466308 -7.722391 57.412193 44.459211 -28.077072 -15.846408 1.247949 14.390649 -4.248405 -6.243969 135.735393 71.682480 -44.072875 -13.670663 -56.173907 -21.397972 -43.615799 20.186156 -1.926076 14.065520 -2.698442 -20.965766 
10.513630 91.837959 615.581726 89.906238 -1.452679 -115.843628 172.499679 0.458294 167.798815 -24.267732 -1.424883 -9.713377 87.850440 6.469353 -1.626123 21.454550 0.003102 0.000002 -176.248401 6.539003 -167.676909 -37.745695 3.771713 16.499358 72.632717 -6.855315 17.409575 21.454555 -0.003108 -0.000021 8.807134 -0.109250 1.119437 7.598636 -0.291655 2.229258 7.280794 -0.278064 2.230994 -2.184198 -5.736043 4.951413 -5.637498 -2.202826 3.779371 -176.889209 -71.675336 -4.516803 -13.357684 57.531742 40.156823 -30.989128 -16.923923 1.372579 13.518259 -6.680051 -4.134744 136.343977 71.441552 -43.473922 -12.563040 -58.391362 -23.045765 -41.788528 19.910932 -1.855251 14.587083 -3.242067 -20.932312 
10.503930 91.838943 614.194275 89.559517 -1.662970 -115.385500 174.425505 1.212598 167.962862 -22.261094 -2.031914 -9.440123 88.384827 6.449287 -0.643397 21.454555 0.003093 0.000000 -178.692174 7.665491 -167.439615 -42.904291 2.745647 16.556066 69.126692 -6.554520 16.901318 21.454560 -0.003109 -0.000018 8.784901 -0.215915 0.989237 7.552798 -0.495835 1.962299 7.234896 -0.483850 1.965261 -2.402291 -5.591052 4.945182 -5.542717 -1.924112 3.729086 -177.999798 -71.467609 -3.368655 -19.117768 56.830818 35.051633 -34.649611 -18.024060 1.522371 11.747976 -8.133770 2.340531 137.381510 71.526192 -42.411472 -11.104385 -60.190134 -24.869759 -40.706637 19.342928 -1.787940 14.111778 -2.630283 -20.342296 
10.540580 91.713791 612.914490 89.166474 -1.677152 -114.755374 175.616840 1.986099 168.749072 -21.135664 -2.376324 -9.462628 89.131066 6.570093 0.073502 21.454553 0.003081 0.000000 177.968707 8.366497 -169.025435 -48.854622 2.377012 17.612852 65.880760 -7.469281 15.274907 21.454557 -0.003107 -0.000021 8.790369 -0.304231 0.786949 7.563550 -0.659196 1.552382 7.245551 -0.649675 1.556336 -2.780917 -5.136758 4.760529 -5.664661 -1.982738 3.677578 -179.312191 -71.394922 -2.014457 -24.200578 55.379444 30.798604 -38.847708 -18.958081 1.685592 10.945659 -9.308318 8.013247 138.627227 71.765009 -41.124313 -9.628760 -61.416556 -26.986544 -40.116921 18.965035 -1.747215 12.639665 1.373767 -18.278075 
